<svg width="22" height="20" viewBox="0 0 22 20" fill="none" xmlns="http://www.w3.org/2000/svg">
<path d="M10.0908 0.872719H4.63627V2.6909H2.81809V8.14545H4.63627V9.96363H10.0908V8.14545H4.63627V2.6909H10.0908V0.872719ZM10.0908 2.6909H11.909V8.14545H10.0908V2.6909ZM0.0908203 13.6H1.909V17.2364H12.8181V19.0545H0.0908203V13.6ZM1.909 13.6H12.8181V11.7818H1.909V13.6ZM14.6363 13.6H12.8181V19.0545H14.6363V13.6ZM13.7272 0.872719H17.3635V2.6909H13.7272V0.872719ZM17.3635 8.14545H13.7272V9.96363H17.3635V8.14545ZM17.3635 2.6909H19.1817V8.14545H17.3635V2.6909ZM21.909 13.6H20.0908V17.2364H16.4545V19.0545H21.909V13.6ZM16.4545 11.7818H20.0908V13.6H16.4545V11.7818Z" fill="white"/>
</svg>
