<svg width="24" height="28" viewBox="0 0 24 28" fill="none" xmlns="http://www.w3.org/2000/svg">
<path d="M20 15.4243L24 19.4243V24.7576C24 25.4649 24 26.9243 24 27.4243C23.5 27.4243 22.0406 27.4243 21.3333 27.4243H2.66667C1.95942 27.4243 1.00014 27.4243 0.000212356 27.4243C0 27.091 0 25.4649 0 24.7576V19.4243L4 15.4243H5.10667L7.77333 18.0909H5.04L2.66667 20.7576H21.3333L18.9733 18.0909H16.4267L19.0933 15.4243H20ZM21.3333 24.7576V23.4243H2.66667V24.7576H21.3333ZM11.12 18.0909L4.52 11.5176C4.3964 11.3943 4.29833 11.2477 4.23142 11.0864C4.16452 10.9251 4.13008 10.7522 4.13008 10.5776C4.13008 10.403 4.16452 10.2301 4.23142 10.0688C4.29833 9.90748 4.3964 9.76096 4.52 9.63761L13.0133 1.14428C13.1354 1.02014 13.2812 0.921798 13.442 0.855075C13.6028 0.788352 13.7754 0.754611 13.9495 0.755854C14.1236 0.757098 14.2957 0.793301 14.4555 0.862314C14.6154 0.931328 14.7597 1.03175 14.88 1.15761L21.48 7.75761C22 8.27761 22 9.11761 21.48 9.63761L13 18.0909C12.8799 18.2203 12.7345 18.3234 12.5728 18.3939C12.411 18.4645 12.2365 18.5009 12.06 18.5009C11.8835 18.5009 11.709 18.4645 11.5472 18.3939C11.3855 18.3234 11.2401 18.2203 11.12 18.0909ZM13.9467 3.97094L7.33333 10.5709L12.0667 15.2909L18.6667 8.69094L13.9467 3.97094Z" fill="white"/>
</svg>
