<svg width="40" height="40" viewBox="0 0 40 40" fill="none" xmlns="http://www.w3.org/2000/svg">
<g clip-path="url(#clip0_422_10968)">
<path d="M20 40C31.0457 40 40 31.0457 40 20C40 8.9543 31.0457 0 20 0C8.9543 0 0 8.9543 0 20C0 31.0457 8.9543 40 20 40Z" fill="black"/>
<path d="M20.7031 20.1563C23.8672 23.3428 25.9766 25.5851 28.4375 28.0635C26.5041 29.7544 23.4648 31.25 20.7031 31.25C14.6194 31.25 9.6875 26.2832 9.6875 20.1563C9.6875 14.0293 14.6194 9.0625 20.7031 9.0625C23.4648 9.0625 26.5041 10.322 28.4375 12.013C25.6712 14.7989 22.3438 18.504 20.7031 20.1563Z" fill="#F6C929"/>
</g>
<defs>
<clipPath id="clip0_422_10968">
<rect width="40" height="40" fill="white"/>
</clipPath>
</defs>
</svg>
