<svg width="80" height="80" viewBox="0 0 80 80" fill="none" xmlns="http://www.w3.org/2000/svg">
<path fill-rule="evenodd" clip-rule="evenodd" d="M76.9231 0H3.07692V3.07692H0V76.9231H3.07692V80H76.9231V76.9231H80V3.07692H76.9231V0ZM73.8462 6.15385H6.15385V73.8462H73.8462V6.15385Z" fill="#FCFCFC"/>
<path d="M43.0768 21.5386H36.923V27.6924H33.846V33.8463H18.4614V36.9232H21.5383V40.0001H24.6153V43.077H27.6922V49.2309H24.6153V55.3847H21.5383V61.5386H18.4614V64.6155H24.6153V61.5386H30.7691V58.4617H36.923V55.3847H43.0768V58.4617H49.2307V61.5386H55.3845V64.6155H61.5383V61.5386H58.4614V55.3847H55.3845V49.2309H52.3076V43.077H55.3845V40.0001H58.4614V36.9232H61.5383V33.8463H46.1537V27.6924H43.0768V21.5386Z" fill="white"/>
<path d="M36.9229 36.9233H33.8459V46.1541H36.9229V36.9233Z" fill="black"/>
<path d="M46.1536 36.9233H43.0767V46.1541H46.1536V36.9233Z" fill="black"/>
</svg>
