<svg width="28" height="16" viewBox="0 0 28 16" fill="none" xmlns="http://www.w3.org/2000/svg">
<path d="M16.6667 0H27.3334V10.6667H24.6667V5.33333H22.0001V2.66667H16.6667V0ZM19.3334 8V5.33333H22.0001V8H19.3334ZM16.6667 10.6667V8H19.3334V10.6667H16.6667ZM14.0001 10.6667H16.6667V13.3333H14.0001V10.6667ZM11.3334 8H14.0001V10.6667H11.3334V8ZM8.66675 8V5.33333H11.3334V8H8.66675ZM6.00008 10.6667V8H8.66675V10.6667H6.00008ZM3.33341 13.3333V10.6667H6.00008V13.3333H3.33341ZM3.33341 13.3333V16H0.666748V13.3333H3.33341Z" fill="white"/>
</svg>
