<svg width="40" height="40" viewBox="0 0 40 40" fill="none" xmlns="http://www.w3.org/2000/svg">
<circle cx="20" cy="20" r="20" fill="black"/>
<path d="M31.706 13.1895C30.871 13.5595 29.974 13.8095 29.031 13.9225C30.004 13.3403 30.7319 12.424 31.079 11.3445C30.1648 11.8875 29.1643 12.2697 28.121 12.4745C27.4194 11.7254 26.4901 11.2288 25.4773 11.062C24.4646 10.8951 23.4251 11.0673 22.5202 11.5518C21.6154 12.0362 20.8958 12.8059 20.4732 13.7412C20.0505 14.6766 19.9485 15.7253 20.183 16.7245C18.3307 16.6315 16.5186 16.1501 14.8644 15.3114C13.2102 14.4728 11.7508 13.2957 10.581 11.8565C10.181 12.5465 9.951 13.3465 9.951 14.1985C9.95055 14.9655 10.1394 15.7208 10.5009 16.3973C10.8623 17.0737 11.3852 17.6506 12.023 18.0765C11.2833 18.053 10.5599 17.8531 9.913 17.4935V17.5535C9.91293 18.6293 10.285 19.6719 10.9662 20.5045C11.6473 21.3371 12.5956 21.9084 13.65 22.1215C12.9638 22.3072 12.2443 22.3346 11.546 22.2015C11.8435 23.1271 12.423 23.9365 13.2034 24.5164C13.9837 25.0963 14.9259 25.4177 15.898 25.4355C14.2478 26.7309 12.2099 27.4336 10.112 27.4305C9.74038 27.4306 9.36908 27.4089 9 27.3655C11.1295 28.7347 13.6083 29.4613 16.14 29.4585C24.71 29.4585 29.395 22.3605 29.395 16.2045C29.395 16.0045 29.39 15.8025 29.381 15.6025C30.2923 14.9435 31.0789 14.1274 31.704 13.1925L31.706 13.1895Z" fill="white"/>
</svg>
