<svg width="80" height="80" viewBox="0 0 80 80" fill="none" xmlns="http://www.w3.org/2000/svg">
<circle cx="40" cy="40" r="40" fill="#737BEF"/>
<path d="M56.635 24.9859C53.575 23.6059 50.295 22.5859 46.865 22.0059C46.8344 22 46.8028 22.0038 46.7745 22.0167C46.7462 22.0296 46.7226 22.051 46.707 22.0779C46.287 22.8159 45.819 23.7779 45.491 24.5379C41.8532 23.9944 38.1548 23.9944 34.517 24.5379C34.1516 23.6956 33.7397 22.8743 33.283 22.0779C33.2675 22.0507 33.2441 22.0288 33.2158 22.0152C33.1876 22.0016 33.1559 21.997 33.125 22.0019C29.697 22.5819 26.417 23.6019 23.355 24.9839C23.3286 24.9949 23.3063 25.0138 23.291 25.0379C17.067 34.1879 15.361 43.1119 16.199 51.9239C16.2013 51.9455 16.208 51.9664 16.2187 51.9853C16.2293 52.0042 16.2437 52.0207 16.261 52.0339C19.8937 54.6787 23.9456 56.6935 28.247 57.9939C28.2769 58.0031 28.309 58.0031 28.339 57.9938C28.369 57.9846 28.3954 57.9665 28.415 57.9419C29.3406 56.704 30.1608 55.3908 30.867 54.0159C30.8768 53.9971 30.8824 53.9764 30.8835 53.9552C30.8846 53.9341 30.8812 53.9129 30.8734 53.8932C30.8656 53.8735 30.8537 53.8556 30.8385 53.8409C30.8232 53.8262 30.805 53.815 30.785 53.8079C29.493 53.3214 28.2411 52.7342 27.041 52.0519C27.0194 52.0396 27.0012 52.0221 26.9881 52.0011C26.9749 51.98 26.9672 51.956 26.9656 51.9312C26.964 51.9064 26.9686 51.8816 26.979 51.8591C26.9893 51.8365 27.0051 51.8169 27.025 51.8019C27.277 51.6159 27.529 51.4219 27.769 51.2279C27.7906 51.2105 27.8166 51.1993 27.8441 51.1958C27.8717 51.1923 27.8997 51.1965 27.925 51.2079C35.779 54.7359 44.285 54.7359 52.047 51.2079C52.0723 51.1958 52.1006 51.1911 52.1285 51.1942C52.1565 51.1974 52.183 51.2084 52.205 51.2259C52.445 51.4219 52.695 51.6159 52.949 51.8019C52.969 51.8165 52.985 51.8359 52.9957 51.8583C53.0064 51.8807 53.0114 51.9054 53.0102 51.9301C53.009 51.9549 53.0017 51.979 52.9889 52.0002C52.9761 52.0215 52.9583 52.0392 52.937 52.0519C51.741 52.7399 50.497 53.3219 49.191 53.8059C49.1709 53.8132 49.1526 53.8247 49.1374 53.8396C49.1221 53.8545 49.1102 53.8725 49.1024 53.8923C49.0947 53.9122 49.0912 53.9335 49.0924 53.9548C49.0935 53.9761 49.0991 53.997 49.109 54.0159C49.829 55.3899 50.653 56.6979 51.559 57.9399C51.5778 57.9654 51.604 57.9844 51.6341 57.9945C51.6642 58.0045 51.6966 58.005 51.727 57.9959C56.0357 56.6992 60.0942 54.6835 63.731 52.0339C63.7487 52.0215 63.7636 52.0054 63.7746 51.9868C63.7857 51.9682 63.7926 51.9474 63.795 51.9259C64.795 41.7379 62.119 32.8859 56.697 25.0419C56.6837 25.0164 56.6617 24.9965 56.635 24.9859ZM32.041 46.5579C29.677 46.5579 27.727 44.4199 27.727 41.7979C27.727 39.1739 29.639 37.0379 32.041 37.0379C34.461 37.0379 36.393 39.1919 36.355 41.7979C36.355 44.4219 34.443 46.5579 32.041 46.5579ZM47.991 46.5579C45.625 46.5579 43.677 44.4199 43.677 41.7979C43.677 39.1739 45.587 37.0379 47.991 37.0379C50.411 37.0379 52.343 39.1919 52.305 41.7979C52.305 44.4219 50.413 46.5579 47.991 46.5579Z" fill="white"/>
</svg>
