<svg width="80" height="80" viewBox="0 0 80 80" fill="none" xmlns="http://www.w3.org/2000/svg">
<circle cx="40" cy="40" r="40" fill="url(#paint0_linear_515_5647)"/>
<path d="M49 20.5H31C28.2161 20.503 25.5472 21.6102 23.5787 23.5787C21.6102 25.5472 20.503 28.2161 20.5 31V49C20.503 51.7839 21.6102 54.4528 23.5787 56.4213C25.5472 58.3898 28.2161 59.497 31 59.5H49C51.7839 59.497 54.4528 58.3898 56.4213 56.4213C58.3898 54.4528 59.497 51.7839 59.5 49V31C59.497 28.2161 58.3898 25.5472 56.4213 23.5787C54.4528 21.6102 51.7839 20.503 49 20.5ZM40 49C38.22 49 36.4799 48.4722 34.9999 47.4832C33.5198 46.4943 32.3663 45.0887 31.6851 43.4442C31.0039 41.7996 30.8257 39.99 31.1729 38.2442C31.5202 36.4984 32.3774 34.8947 33.636 33.636C34.8947 32.3774 36.4984 31.5202 38.2442 31.1729C39.99 30.8257 41.7996 31.0039 43.4442 31.6851C45.0887 32.3663 46.4943 33.5198 47.4832 34.9999C48.4722 36.4799 49 38.22 49 40C48.9975 42.3862 48.0485 44.6739 46.3612 46.3612C44.6739 48.0485 42.3862 48.9975 40 49ZM51.25 31C50.805 31 50.37 30.868 50 30.6208C49.63 30.3736 49.3416 30.0222 49.1713 29.611C49.001 29.1999 48.9564 28.7475 49.0432 28.311C49.13 27.8746 49.3443 27.4737 49.659 27.159C49.9737 26.8443 50.3746 26.63 50.811 26.5432C51.2475 26.4564 51.6999 26.501 52.111 26.6713C52.5222 26.8416 52.8736 27.13 53.1208 27.5C53.368 27.87 53.5 28.305 53.5 28.75C53.5 29.3467 53.2629 29.919 52.841 30.341C52.419 30.7629 51.8467 31 51.25 31ZM46 40C46 41.1867 45.6481 42.3467 44.9888 43.3334C44.3295 44.3201 43.3925 45.0892 42.2961 45.5433C41.1997 45.9974 39.9933 46.1162 38.8295 45.8847C37.6656 45.6532 36.5965 45.0818 35.7574 44.2426C34.9182 43.4035 34.3468 42.3344 34.1153 41.1705C33.8838 40.0067 34.0026 38.8003 34.4567 37.7039C34.9108 36.6075 35.6799 35.6705 36.6666 35.0112C37.6533 34.3519 38.8133 34 40 34C41.5913 34 43.1174 34.6321 44.2426 35.7574C45.3679 36.8826 46 38.4087 46 40Z" fill="white"/>
<defs>
<linearGradient id="paint0_linear_515_5647" x1="-1.59986e-07" y1="40" x2="79.4436" y2="40.0846" gradientUnits="userSpaceOnUse">
<stop stop-color="#FFAD4D"/>
<stop offset="0.364583" stop-color="#F04C5B"/>
<stop offset="0.744792" stop-color="#C03C94"/>
<stop offset="1" stop-color="#9534C5"/>
</linearGradient>
</defs>
</svg>
