<svg width="80" height="80" viewBox="0 0 80 80" fill="none" xmlns="http://www.w3.org/2000/svg">
<circle cx="40" cy="40" r="40" fill="#32B5FC"/>
<circle cx="40" cy="40" r="40" fill="black" fill-opacity="0.2"/>
<path d="M54 22C55.0609 22 56.0783 22.4214 56.8284 23.1716C57.5786 23.9217 58 24.9391 58 26V54C58 55.0609 57.5786 56.0783 56.8284 56.8284C56.0783 57.5786 55.0609 58 54 58H26C24.9391 58 23.9217 57.5786 23.1716 56.8284C22.4214 56.0783 22 55.0609 22 54V26C22 24.9391 22.4214 23.9217 23.1716 23.1716C23.9217 22.4214 24.9391 22 26 22H54ZM53 53V42.4C53 40.6708 52.3131 39.0124 51.0903 37.7897C49.8676 36.5669 48.2092 35.88 46.48 35.88C44.78 35.88 42.8 36.92 41.84 38.48V36.26H36.26V53H41.84V43.14C41.84 41.6 43.08 40.34 44.62 40.34C45.3626 40.34 46.0748 40.635 46.5999 41.1601C47.125 41.6852 47.42 42.3974 47.42 43.14V53H53ZM29.76 33.12C30.6511 33.12 31.5058 32.766 32.1359 32.1359C32.766 31.5058 33.12 30.6511 33.12 29.76C33.12 27.9 31.62 26.38 29.76 26.38C28.8636 26.38 28.0039 26.7361 27.37 27.37C26.7361 28.0039 26.38 28.8636 26.38 29.76C26.38 31.62 27.9 33.12 29.76 33.12ZM32.54 53V36.26H27V53H32.54Z" fill="white"/>
</svg>
