<svg width="80" height="80" viewBox="0 0 80 80" fill="none" xmlns="http://www.w3.org/2000/svg">
<circle cx="40" cy="40" r="40" fill="#3284FF"/>
<path d="M40 20C28.96 20 20 28.96 20 40C20 51.04 28.96 60 40 60C51.04 60 60 51.04 60 40C60 28.96 51.04 20 40 20ZM49.28 33.6C48.98 36.76 47.68 44.44 47.02 47.98C46.74 49.48 46.18 49.98 45.66 50.04C44.5 50.14 43.62 49.28 42.5 48.54C40.74 47.38 39.74 46.66 38.04 45.54C36.06 44.24 37.34 43.52 38.48 42.36C38.78 42.06 43.9 37.4 44 36.98C44.0139 36.9164 44.012 36.8503 43.9946 36.7876C43.9772 36.7249 43.9447 36.6673 43.9 36.62C43.78 36.52 43.62 36.56 43.48 36.58C43.3 36.62 40.5 38.48 35.04 42.16C34.24 42.7 33.52 42.98 32.88 42.96C32.16 42.94 30.8 42.56 29.78 42.22C28.52 41.82 27.54 41.6 27.62 40.9C27.66 40.54 28.16 40.18 29.1 39.8C34.94 37.26 38.82 35.58 40.76 34.78C46.32 32.46 47.46 32.06 48.22 32.06C48.38 32.06 48.76 32.1 49 32.3C49.2 32.46 49.26 32.68 49.28 32.84C49.26 32.96 49.3 33.32 49.28 33.6Z" fill="white"/>
</svg>
