<svg width="80" height="80" viewBox="0 0 80 80" fill="none" xmlns="http://www.w3.org/2000/svg">
<circle cx="40" cy="40" r="40" fill="#111111"/>
<path d="M49.2001 27.64C47.8329 26.0792 47.0795 24.0749 47.0801 22H40.9001V46.8C40.8524 48.142 40.2858 49.4132 39.3196 50.3459C38.3534 51.2785 37.063 51.7998 35.7201 51.8C32.8801 51.8 30.5201 49.48 30.5201 46.6C30.5201 43.16 33.8401 40.58 37.2601 41.64V35.32C30.3601 34.4 24.3201 39.76 24.3201 46.6C24.3201 53.26 29.8401 58 35.7001 58C41.9801 58 47.0801 52.9 47.0801 46.6V34.02C49.5861 35.8197 52.5948 36.7853 55.6801 36.78V30.6C55.6801 30.6 51.9201 30.78 49.2001 27.64Z" fill="white"/>
</svg>
