<svg width="23" height="19" viewBox="0 0 23 19" fill="none" xmlns="http://www.w3.org/2000/svg">
<path d="M19.7743 2.49346L20.0905 3.41897C20.4782 3.37251 20.8587 3.30402 21.2309 3.21456C20.8789 3.57294 20.4967 3.90182 20.088 4.19736L19.8694 4.35547L19.8815 4.625C19.8902 4.81829 19.895 5.01275 19.895 5.20452C19.895 11.1455 15.3765 17.9585 7.14 17.9585H7.13944C5.37308 17.9605 3.63345 17.5933 2.02936 16.889C3.911 16.7156 5.71024 16.0036 7.20674 14.8288L8.31176 13.9614L6.90717 13.9356C6.03936 13.9197 5.19825 13.6328 4.50159 13.1151C4.0208 12.7578 3.62542 12.303 3.33926 11.7838C3.82429 11.7917 4.30953 11.7316 4.78062 11.6042L4.74903 10.6314C3.80774 10.4412 2.96125 9.9312 2.35318 9.18792C1.90302 8.63766 1.60406 7.98464 1.47918 7.29295C1.96961 7.46361 2.48468 7.55964 3.0071 7.57627L4.75491 7.63188L3.30068 6.66072C2.73128 6.28046 2.26454 5.76553 1.94188 5.16163C1.61921 4.55772 1.4506 3.88351 1.451 3.19881V3.19852C1.451 2.69558 1.54065 2.21317 1.70465 1.76585C2.82267 2.99116 4.15503 4.00538 5.63833 4.75739C7.35506 5.62773 9.2356 6.12737 11.1579 6.22389L11.8216 6.25721L11.6698 5.6103C11.4605 4.71827 11.5515 3.78208 11.9288 2.9471C12.3061 2.11212 12.9485 1.42505 13.7562 0.992569C14.564 0.560089 15.492 0.406392 16.396 0.555342C17.3001 0.704291 18.1297 1.14755 18.7561 1.81631L18.9454 2.01852L19.2173 1.96516C19.8054 1.84972 20.3805 1.68081 20.9357 1.4611C20.6192 1.87166 20.2264 2.22295 19.7743 2.49346Z" fill="#009FE3" stroke="#333333"/>
</svg>
