<svg width="80" height="80" viewBox="0 0 80 80" fill="none" xmlns="http://www.w3.org/2000/svg">
<circle cx="40" cy="40" r="40" fill="#009FE3"/>
<path d="M63.412 26.379C61.742 27.119 59.948 27.619 58.062 27.845C60.008 26.6806 61.4639 24.848 62.158 22.689C60.3297 23.775 58.3287 24.5394 56.242 24.949C54.8388 23.4508 52.9801 22.4577 50.9547 22.124C48.9292 21.7903 46.8502 22.1346 45.0405 23.1035C43.2308 24.0725 41.7916 25.6118 40.9463 27.4824C40.1011 29.3531 39.8971 31.4505 40.366 33.449C36.6614 33.263 33.0373 32.3001 29.7288 30.6228C26.4204 28.9456 23.5017 26.5914 21.162 23.713C20.362 25.093 19.902 26.693 19.902 28.397C19.9011 29.931 20.2789 31.4415 21.0018 32.7945C21.7246 34.1475 22.7703 35.3011 24.046 36.153C22.5666 36.106 21.1197 35.7062 19.826 34.987V35.107C19.8259 37.2585 20.5701 39.3438 21.9324 41.009C23.2947 42.6743 25.1911 43.8169 27.3 44.243C25.9276 44.6145 24.4887 44.6692 23.092 44.403C23.687 46.2543 24.846 47.8731 26.4067 49.0329C27.9675 50.1927 29.8518 50.8354 31.796 50.871C28.4957 53.4619 24.4198 54.8672 20.224 54.861C19.4808 54.8612 18.7382 54.8178 18 54.731C22.259 57.4694 27.2167 58.9227 32.28 58.917C49.42 58.917 58.79 44.721 58.79 32.409C58.79 32.009 58.78 31.605 58.762 31.205C60.5846 29.887 62.1578 28.2548 63.408 26.385L63.412 26.379Z" fill="white"/>
</svg>
