<svg width="80" height="80" viewBox="0 0 80 80" fill="none" xmlns="http://www.w3.org/2000/svg">
<circle cx="40" cy="40" r="40" fill="#B52020"/>
<path d="M36 46L46.38 40L36 34V46ZM59.12 30.34C59.38 31.28 59.56 32.54 59.68 34.14C59.82 35.74 59.88 37.12 59.88 38.32L60 40C60 44.38 59.68 47.6 59.12 49.66C58.62 51.46 57.46 52.62 55.66 53.12C54.72 53.38 53 53.56 50.36 53.68C47.76 53.82 45.38 53.88 43.18 53.88L40 54C31.62 54 26.4 53.68 24.34 53.12C22.54 52.62 21.38 51.46 20.88 49.66C20.62 48.72 20.44 47.46 20.32 45.86C20.18 44.26 20.12 42.88 20.12 41.68L20 40C20 35.62 20.32 32.4 20.88 30.34C21.38 28.54 22.54 27.38 24.34 26.88C25.28 26.62 27 26.44 29.64 26.32C32.24 26.18 34.62 26.12 36.82 26.12L40 26C48.38 26 53.6 26.32 55.66 26.88C57.46 27.38 58.62 28.54 59.12 30.34Z" fill="white"/>
</svg>
